<svg xmlns="http://www.w3.org/2000/svg" xmlns:xlink="http://www.w3.org/1999/xlink" width="592" height="149" viewBox="0 0 592 149">
  <defs>
    <filter id="Rectangle_426" x="58" y="0" width="133" height="149" filterUnits="userSpaceOnUse">
      <feOffset dy="3" input="SourceAlpha"/>
      <feGaussianBlur stdDeviation="3" result="blur"/>
      <feFlood flood-opacity="0.161"/>
      <feComposite operator="in" in2="blur"/>
      <feComposite in="SourceGraphic"/>
    </filter>
    <filter id="Rectangle_426-2" x="227" y="0" width="134" height="149" filterUnits="userSpaceOnUse">
      <feOffset dy="3" input="SourceAlpha"/>
      <feGaussianBlur stdDeviation="3" result="blur-2"/>
      <feFlood flood-opacity="0.161"/>
      <feComposite operator="in" in2="blur-2"/>
      <feComposite in="SourceGraphic"/>
    </filter>
    <filter id="Rectangle_426-3" x="398" y="0" width="135" height="149" filterUnits="userSpaceOnUse">
      <feOffset dy="3" input="SourceAlpha"/>
      <feGaussianBlur stdDeviation="3" result="blur-3"/>
      <feFlood flood-opacity="0.161"/>
      <feComposite operator="in" in2="blur-3"/>
      <feComposite in="SourceGraphic"/>
    </filter>
  </defs>
  <g id="_3task" data-name="3task" transform="translate(-714.614 1548)">
    <rect id="Rectangle_486" data-name="Rectangle 486" width="592" height="15" transform="translate(714.614 -1496)" fill="#decacd"/>
    <g id="create_account" data-name="create account" transform="translate(782 -1542)">
      <g transform="matrix(1, 0, 0, 1, -67.39, -6)" filter="url(#Rectangle_426)">
        <rect id="Rectangle_426-4" data-name="Rectangle 426" width="115" height="131" rx="5" transform="translate(67 6)" fill="#fff"/>
      </g>
      <text id="Create_account-2" data-name="Create 
account" transform="translate(56.614 102)" font-size="10" font-family="Montserrat-Medium, Montserrat" font-weight="500"><tspan x="-17.965" y="0">Create </tspan><tspan x="-20.67" y="9">account</tspan></text>
      <g id="person-circle-outline" transform="translate(30.122 22.165)">
        <path id="Path_712" data-name="Path 712" d="M75.89,47.983a27.525,27.525,0,1,0,27.137,27.142A27.561,27.561,0,0,0,75.89,47.983Zm16.728,43.3a.529.529,0,0,1-.812-.042,16.444,16.444,0,0,0-4.281-3.915,23.217,23.217,0,0,0-24.038,0,16.44,16.44,0,0,0-4.281,3.914.529.529,0,0,1-.812.042A23.2,23.2,0,0,1,52.218,75.9a23.29,23.29,0,1,1,46.577-.4,23.2,23.2,0,0,1-6.177,15.779Z" transform="translate(-47.981 -47.981)" fill="#4f6cc2"/>
        <path id="Path_713" data-name="Path 713" d="M197.008,144a8.745,8.745,0,0,0-8.97,9.626c.384,5.194,4.408,9.428,8.97,9.428s8.578-4.234,8.97-9.427a8.889,8.889,0,0,0-2.339-6.857A8.986,8.986,0,0,0,197.008,144Z" transform="translate(-169.482 -131.295)" fill="#4f6cc2"/>
      </g>
    </g>
    <g id="search" transform="translate(951.055 -1542)">
      <g transform="matrix(1, 0, 0, 1, -236.44, -6)" filter="url(#Rectangle_426-2)">
        <rect id="Rectangle_426-5" data-name="Rectangle 426" width="116" height="131" rx="5" transform="translate(236 6)" fill="#fff"/>
      </g>
      <text id="Search_products_to_purchase" data-name="Search products 
to purchase" transform="translate(56.559 101)" font-size="10" font-family="Montserrat-Medium, Montserrat" font-weight="500"><tspan x="-42.82" y="0">Search products </tspan><tspan x="-30.065" y="9">to purchase</tspan></text>
      <path id="_ionicons_svg_ios-search" d="M102.158,99.726,91.42,88.886A15.3,15.3,0,1,0,89.1,91.239l10.668,10.769a1.653,1.653,0,0,0,2.333.06A1.663,1.663,0,0,0,102.158,99.726ZM79.394,91.37a12.084,12.084,0,1,1,8.547-3.539A12.009,12.009,0,0,1,79.394,91.37Z" transform="translate(-25.306 -35.021)" fill="#516ebf"/>
    </g>
    <g id="checkout_" data-name="checkout " transform="translate(1121.614 -1542)">
      <g transform="matrix(1, 0, 0, 1, -407, -6)" filter="url(#Rectangle_426-3)">
        <rect id="Rectangle_426-6" data-name="Rectangle 426" width="117" height="131" rx="5" transform="translate(407 6)" fill="#fff"/>
      </g>
      <text id="Go_through_Checkout_process" data-name="Go through 
Checkout process" transform="translate(57 99)" font-size="10" font-family="Montserrat-Medium, Montserrat" font-weight="500"><tspan x="-30.605" y="0">Go through </tspan><tspan x="-45.32" y="9">Checkout process</tspan></text>
      <g id="_ionicons_svg_ios-cart" transform="translate(34.506 25.354)">
        <circle id="Ellipse_23" data-name="Ellipse 23" cx="2.77" cy="2.77" r="2.77" transform="translate(10.092 38.835) rotate(-1.057)" fill="#4f6cc2"/>
        <circle id="Ellipse_24" data-name="Ellipse 24" cx="2.77" cy="2.77" r="2.77" transform="matrix(0.024, -1, 1, 0.024, 35.987, 44.257)" fill="#4f6cc2"/>
        <path id="Path_35" data-name="Path 35" d="M96.07,71.78a.678.678,0,0,0-.6-.485L57.886,67.661a1.157,1.157,0,0,1-.865-.542,11.751,11.751,0,0,0-1.408-2.146c-.889-1.085-2.562-1.05-5.631-1.073A1.681,1.681,0,0,0,48.1,65.526a1.65,1.65,0,0,0,1.8,1.627,15.332,15.332,0,0,1,3,.219c.542.162.981,1.05,1.142,1.823a.042.042,0,0,0,.012.035c.023.138.231,1.177.231,1.189L58.9,94.837a8.974,8.974,0,0,0,1.673,4.12,4.605,4.605,0,0,0,3.8,1.869h27.3a1.64,1.64,0,0,0,1.662-1.546,1.608,1.608,0,0,0-1.616-1.685H64.348a1.341,1.341,0,0,1-.958-.323,5.178,5.178,0,0,1-1.327-3l-.5-2.735a.063.063,0,0,1,.046-.069l32.046-5.424a.674.674,0,0,0,.565-.6L96.07,72.08A.658.658,0,0,0,96.07,71.78Z" transform="translate(-48.1 -63.899)" fill="#4f6cc2"/>
      </g>
    </g>
  </g>
</svg>
