<svg xmlns="http://www.w3.org/2000/svg" xmlns:xlink="http://www.w3.org/1999/xlink" width="135" height="149" viewBox="0 0 135 149">
  <defs>
    <filter id="Rectangle_426" x="0" y="0" width="135" height="149" filterUnits="userSpaceOnUse">
      <feOffset dy="3" input="SourceAlpha"/>
      <feGaussianBlur stdDeviation="3" result="blur"/>
      <feFlood flood-opacity="0.161"/>
      <feComposite operator="in" in2="blur"/>
      <feComposite in="SourceGraphic"/>
    </filter>
  </defs>
  <g id="checkout_" data-name="checkout " transform="translate(9.242 6.09)">
    <g transform="matrix(1, 0, 0, 1, -9.24, -6.09)" filter="url(#Rectangle_426)">
      <rect id="Rectangle_426-2" data-name="Rectangle 426" width="117" height="131" rx="5" transform="translate(9 6)" fill="#fff"/>
    </g>
    <text id="Go_through_Checkout_process" data-name="Go through 
Checkout process" transform="translate(56.758 98.91)" font-size="10" font-family="Montserrat-Medium, Montserrat" font-weight="500"><tspan x="-30.605" y="0">Go through </tspan><tspan x="-45.32" y="9">Checkout process</tspan></text>
    <g id="_ionicons_svg_ios-cart" transform="translate(34.264 25.264)">
      <circle id="Ellipse_23" data-name="Ellipse 23" cx="2.77" cy="2.77" r="2.77" transform="translate(10.092 38.835) rotate(-1.057)" fill="#4f6cc2"/>
      <circle id="Ellipse_24" data-name="Ellipse 24" cx="2.77" cy="2.77" r="2.77" transform="matrix(0.024, -1, 1, 0.024, 35.987, 44.257)" fill="#4f6cc2"/>
      <path id="Path_35" data-name="Path 35" d="M96.07,71.78a.678.678,0,0,0-.6-.485L57.886,67.661a1.157,1.157,0,0,1-.865-.542,11.751,11.751,0,0,0-1.408-2.146c-.889-1.085-2.562-1.05-5.631-1.073A1.681,1.681,0,0,0,48.1,65.526a1.65,1.65,0,0,0,1.8,1.627,15.332,15.332,0,0,1,3,.219c.542.162.981,1.05,1.142,1.823a.042.042,0,0,0,.012.035c.023.138.231,1.177.231,1.189L58.9,94.837a8.974,8.974,0,0,0,1.673,4.12,4.605,4.605,0,0,0,3.8,1.869h27.3a1.64,1.64,0,0,0,1.662-1.546,1.608,1.608,0,0,0-1.616-1.685H64.348a1.341,1.341,0,0,1-.958-.323,5.178,5.178,0,0,1-1.327-3l-.5-2.735a.063.063,0,0,1,.046-.069l32.046-5.424a.674.674,0,0,0,.565-.6L96.07,72.08A.658.658,0,0,0,96.07,71.78Z" transform="translate(-48.1 -63.899)" fill="#4f6cc2"/>
    </g>
  </g>
</svg>
