<svg xmlns="http://www.w3.org/2000/svg" xmlns:xlink="http://www.w3.org/1999/xlink" width="770" height="252" viewBox="0 0 770 252">
  <defs>
    <filter id="Rectangle_438" x="31" y="0" width="231" height="252" filterUnits="userSpaceOnUse">
      <feOffset input="SourceAlpha"/>
      <feGaussianBlur stdDeviation="15" result="blur"/>
      <feFlood flood-opacity="0.161"/>
      <feComposite operator="in" in2="blur"/>
      <feComposite in="SourceGraphic"/>
    </filter>
    <filter id="directions-solid" x="105.651" y="65.083" width="81.794" height="81.794" filterUnits="userSpaceOnUse">
      <feOffset dy="3" input="SourceAlpha"/>
      <feGaussianBlur stdDeviation="3" result="blur-2"/>
      <feFlood flood-opacity="0.161"/>
      <feComposite operator="in" in2="blur-2"/>
      <feComposite in="SourceGraphic"/>
    </filter>
    <filter id="Rectangle_438-2" x="269" y="0" width="232" height="252" filterUnits="userSpaceOnUse">
      <feOffset input="SourceAlpha"/>
      <feGaussianBlur stdDeviation="15" result="blur-3"/>
      <feFlood flood-opacity="0.161"/>
      <feComposite operator="in" in2="blur-3"/>
      <feComposite in="SourceGraphic"/>
    </filter>
    <filter id="Rectangle_202" x="343.498" y="86.917" width="82.659" height="59.703" filterUnits="userSpaceOnUse">
      <feOffset dy="3" input="SourceAlpha"/>
      <feGaussianBlur stdDeviation="3" result="blur-4"/>
      <feFlood flood-opacity="0.161"/>
      <feComposite operator="in" in2="blur-4"/>
      <feComposite in="SourceGraphic"/>
    </filter>
    <filter id="Path_706" x="343.498" y="111.101" width="82.659" height="26.499" filterUnits="userSpaceOnUse">
      <feOffset dy="3" input="SourceAlpha"/>
      <feGaussianBlur stdDeviation="3" result="blur-5"/>
      <feFlood flood-opacity="0.161"/>
      <feComposite operator="in" in2="blur-5"/>
      <feComposite in="SourceGraphic"/>
    </filter>
    <filter id="Path_612" x="352.21" y="71.308" width="65.156" height="36.934" filterUnits="userSpaceOnUse">
      <feOffset dy="3" input="SourceAlpha"/>
      <feGaussianBlur stdDeviation="3" result="blur-6"/>
      <feFlood flood-opacity="0.161"/>
      <feComposite operator="in" in2="blur-6"/>
      <feComposite in="SourceGraphic"/>
    </filter>
    <filter id="Path_613" x="360.444" y="84.603" width="48.842" height="35.16" filterUnits="userSpaceOnUse">
      <feOffset dy="3" input="SourceAlpha"/>
      <feGaussianBlur stdDeviation="3" result="blur-7"/>
      <feFlood flood-opacity="0.161"/>
      <feComposite operator="in" in2="blur-7"/>
      <feComposite in="SourceGraphic"/>
    </filter>
    <filter id="Rectangle_438-3" x="508" y="0" width="232" height="252" filterUnits="userSpaceOnUse">
      <feOffset input="SourceAlpha"/>
      <feGaussianBlur stdDeviation="15" result="blur-8"/>
      <feFlood flood-opacity="0.161"/>
      <feComposite operator="in" in2="blur-8"/>
      <feComposite in="SourceGraphic"/>
    </filter>
    <filter id="info-circle-solid" x="583.181" y="64.619" width="82.047" height="82.047" filterUnits="userSpaceOnUse">
      <feOffset dy="3" input="SourceAlpha"/>
      <feGaussianBlur stdDeviation="3" result="blur-9"/>
      <feFlood flood-opacity="0.161"/>
      <feComposite operator="in" in2="blur-9"/>
      <feComposite in="SourceGraphic"/>
    </filter>
  </defs>
  <g id="redesign" transform="translate(210 -1112)">
    <rect id="Rectangle_518" data-name="Rectangle 518" width="770" height="29" transform="translate(-210 1224)" fill="#decacd"/>
    <g id="Simple_nav" data-name="Simple nav" transform="translate(-166 3829)">
      <g transform="matrix(1, 0, 0, 1, -44, -2717)" filter="url(#Rectangle_438)">
        <rect id="Rectangle_438-4" data-name="Rectangle 438" width="141" height="162" rx="5" transform="translate(76 45)" fill="#fff"/>
      </g>
      <text id="Simple_navigation_and_easier_finds" data-name="Simple navigation
and easier finds" transform="translate(103 -2553)" font-size="10" font-family="Montserrat-Bold, Montserrat" font-weight="700"><tspan x="-47.445" y="0">Simple navigation</tspan><tspan font-family="Montserrat-Regular, Montserrat" font-weight="400"><tspan x="-40.135" y="16">and easier finds</tspan></tspan></text>
      <g id="directions_icon" data-name="directions icon" transform="translate(70.651 -2645.917)">
        <rect id="Rectangle_204" data-name="Rectangle 204" width="51.785" height="51.035" rx="20" transform="translate(6.563 1.637)" fill="#fff"/>
        <g transform="matrix(1, 0, 0, 1, -114.65, -71.08)" filter="url(#directions-solid)">
          <path id="directions-solid-2" data-name="directions-solid" d="M62.624,29.071l-27.9-27.9a4,4,0,0,0-5.652,0l-27.9,27.9a4,4,0,0,0,0,5.652l27.9,27.9a4,4,0,0,0,5.652,0l27.9-27.9a4,4,0,0,0,0-5.652ZM50.042,30.635,39.55,40.32a1,1,0,0,1-1.673-.733V32.893H25.915v7.974a1,1,0,0,1-1,1H20.931a1,1,0,0,1-1-1V30.9a3.988,3.988,0,0,1,3.987-3.987H37.876V20.218a1,1,0,0,1,1.673-.733L50.042,29.17A1,1,0,0,1,50.042,30.635Z" transform="translate(114.65 71.08)" fill="#4f6cc2"/>
        </g>
      </g>
    </g>
    <g id="Gift_options" data-name="Gift options" transform="translate(19 3828)">
      <g transform="matrix(1, 0, 0, 1, -229, -2716)" filter="url(#Rectangle_438-2)">
        <rect id="Rectangle_438-5" data-name="Rectangle 438" width="142" height="162" rx="5" transform="translate(314 45)" fill="#fff"/>
      </g>
      <text id="Provide_effortless_gifting_options" data-name="Provide effortless gifting options" transform="translate(94 -2566)" font-size="10" font-family="Montserrat-Regular, Montserrat"><tspan x="16.11" y="10">Provide </tspan><tspan y="10" font-family="Montserrat-Bold, Montserrat" font-weight="700">effortless </tspan><tspan x="22.19" y="26" font-family="Montserrat-Bold, Montserrat" font-weight="700">gifting options</tspan></text>
      <g id="gift_card_icon" data-name="gift card icon" transform="translate(123.498 -2638.692)">
        <g transform="matrix(1, 0, 0, 1, -352.5, -77.31)" filter="url(#Rectangle_202)">
          <rect id="Rectangle_202-2" data-name="Rectangle 202" width="64.659" height="41.703" rx="10" transform="translate(352.5 92.92)" fill="#c3cadf"/>
        </g>
        <g transform="matrix(1, 0, 0, 1, -352.5, -77.31)" filter="url(#Path_706)">
          <path id="Path_706-2" data-name="Path 706" d="M0,0H64.659V8.5H0Z" transform="translate(352.5 117.1)" fill="#4f6cc2"/>
        </g>
        <g id="Group_289" data-name="Group 289" transform="translate(8.712 0)">
          <g transform="matrix(1, 0, 0, 1, -361.21, -77.31)" filter="url(#Path_612)">
            <g id="Path_612-2" data-name="Path 612" transform="translate(361.21 81)" fill="none">
              <path d="M5.817-2.823c3.257-1.664,8.836.861,10.3,1.858,5.038,3.433,7.324,9.6,7.324,9.6s2.839-6.78,6.533-9.6,6.48-3.48,11.08-1.858,6.1,4.193,6.1,9.128a8.937,8.937,0,0,1-8.937,8.937H8.937A8.937,8.937,0,0,1,0,6.305C0,1.37,2.56-1.159,5.817-2.823Z" stroke="none"/>
              <path d="M 36.68159484863281 1.307882308959961 C 35.984619140625 1.307927131652832 35.06825256347656 1.43966007232666 33.00505065917969 3.012060165405273 C 32.56117248535156 3.350348949432373 31.3524055480957 4.442771434783936 29.71883964538574 7.273493766784668 C 28.97892951965332 8.55564022064209 28.43849563598633 9.70231819152832 28.19460296630859 10.2422046661377 L 38.21940612792969 10.2422046661377 C 40.39020538330078 10.2422046661377 42.15627288818359 8.476126670837402 42.15627288818359 6.30532693862915 C 42.15627288818359 4.41713809967041 41.87438583374023 3.58711576461792 41.63790893554688 3.223304748535156 C 41.33636093139648 2.759382247924805 40.58052825927734 2.31157112121582 39.39141845703125 1.892326354980469 C 38.27585220336914 1.499004364013672 37.38946151733398 1.30783748626709 36.68160629272461 1.307882308959961 L 36.68159484863281 1.307882308959961 M 8.437408447265625 1.623371124267578 C 8.212802886962891 1.623371124267578 8.087257385253906 1.64527416229248 8.040592193603516 1.655592918395996 C 6.952873229980469 2.217376708984375 6.20245361328125 2.798785209655762 5.747417449951172 3.432015419006348 C 5.426563262939453 3.87852668762207 4.999996185302734 4.662171363830566 4.999996185302734 6.30532693862915 C 4.999996185302734 8.476126670837402 6.766075134277344 10.2422046661377 8.936874389648438 10.2422046661377 L 18.70039749145508 10.2422046661377 C 18.35341262817383 9.412487030029297 16.54195594787598 5.375888347625732 13.30301666259766 3.168426990509033 C 13.16384124755859 3.075626850128174 12.40911865234375 2.644482612609863 11.25952911376953 2.230715751647949 C 10.18715286254883 1.844738006591797 9.158527374267578 1.623371124267578 8.437408447265625 1.623371124267578 M 36.68126678466797 -3.692118644714355 C 37.98944473266602 -3.692206382751465 39.40476226806641 -3.404637336730957 41.05397415161133 -2.823173522949219 C 45.65401840209961 -1.20131778717041 47.15627288818359 1.369626998901367 47.15627288818359 6.30532693862915 C 47.15627288818359 11.24102687835693 43.15510559082031 15.2422046661377 38.21940612792969 15.2422046661377 L 8.936874389648438 15.2422046661377 C 4.001174926757812 15.2422046661377 -3.814697265625e-06 11.24102687835693 -3.814697265625e-06 6.30532693862915 C -3.814697265625e-06 1.369626998901367 2.559818267822266 -1.158962249755859 5.816806793212891 -2.823173522949219 C 9.073814392089844 -4.487373352050781 14.65277099609375 -1.962562561035156 16.11678504943848 -0.9646844863891602 C 21.15437316894531 2.46860408782959 23.44107437133789 8.631293296813965 23.44107437133789 8.631293296813965 C 23.44107437133789 8.631293296813965 26.27971839904785 1.85102653503418 29.97429656982422 -0.9646844863891602 C 32.34429168701172 -2.770905494689941 34.34062194824219 -3.691962242126465 36.68126678466797 -3.692118644714355 Z" stroke="none" fill="#4f6cc2"/>
            </g>
          </g>
          <g transform="matrix(1, 0, 0, 1, -361.21, -77.31)" filter="url(#Path_613)">
            <path id="Path_613-2" data-name="Path 613" d="M0-27.86,12.025-38.182,23.789-27.86" transform="translate(372.97 132.09)" fill="none" stroke="#4f6cc2" stroke-linecap="round" stroke-width="5"/>
          </g>
        </g>
      </g>
    </g>
    <g id="More_Details" data-name="More Details" transform="translate(232 3756)">
      <g transform="matrix(1, 0, 0, 1, -442, -2644)" filter="url(#Rectangle_438-3)">
        <rect id="Rectangle_438-6" data-name="Rectangle 438" width="142" height="162" rx="5" transform="translate(553 45)" fill="#fff"/>
      </g>
      <text id="Increase_Details_about_opportunities" data-name="Increase Details 
about opportunities" transform="translate(121 -2494)" font-size="10" font-family="Montserrat-Bold, Montserrat" font-weight="700"><tspan x="19.21" y="10">Increase Details</tspan><tspan y="10" font-family="Montserrat-Regular, Montserrat" font-weight="400"> </tspan><tspan font-family="Montserrat-Regular, Montserrat" font-weight="400"><tspan x="10.725" y="26">about opportunities</tspan></tspan></text>
      <g id="information_detail_icon" data-name="information/detail icon" transform="translate(150.181 -2573.381)">
        <rect id="Rectangle_205" data-name="Rectangle 205" width="46.716" height="60.656" transform="translate(8.906 3.391)" fill="#fff"/>
        <g transform="matrix(1, 0, 0, 1, -592.18, -70.62)" filter="url(#info-circle-solid)">
          <path id="info-circle-solid-2" data-name="info-circle-solid" d="M40.023,8A32.023,32.023,0,1,0,72.047,40.023,32.028,32.028,0,0,0,40.023,8Zm0,14.2A5.423,5.423,0,1,1,34.6,27.627,5.423,5.423,0,0,1,40.023,22.2ZM47.254,55a1.55,1.55,0,0,1-1.55,1.55H34.342A1.55,1.55,0,0,1,32.792,55V51.9a1.55,1.55,0,0,1,1.55-1.55h1.55V42.089h-1.55a1.55,1.55,0,0,1-1.55-1.55v-3.1a1.55,1.55,0,0,1,1.55-1.55h8.264a1.55,1.55,0,0,1,1.55,1.55V50.353H45.7a1.55,1.55,0,0,1,1.55,1.55Z" transform="translate(584.18 62.62)" fill="#4f6cc2"/>
        </g>
      </g>
    </g>
  </g>
</svg>
