<svg xmlns="http://www.w3.org/2000/svg" xmlns:xlink="http://www.w3.org/1999/xlink" width="231" height="252" viewBox="0 0 231 252">
  <defs>
    <filter id="Rectangle_438" x="0" y="0" width="231" height="252" filterUnits="userSpaceOnUse">
      <feOffset input="SourceAlpha"/>
      <feGaussianBlur stdDeviation="15" result="blur"/>
      <feFlood flood-opacity="0.161"/>
      <feComposite operator="in" in2="blur"/>
      <feComposite in="SourceGraphic"/>
    </filter>
    <filter id="directions-solid" x="74.651" y="65.083" width="81.794" height="81.794" filterUnits="userSpaceOnUse">
      <feOffset dy="3" input="SourceAlpha"/>
      <feGaussianBlur stdDeviation="3" result="blur-2"/>
      <feFlood flood-opacity="0.161"/>
      <feComposite operator="in" in2="blur-2"/>
      <feComposite in="SourceGraphic"/>
    </filter>
  </defs>
  <g id="Simple_nav" data-name="Simple nav" transform="translate(13 2717)">
    <g transform="matrix(1, 0, 0, 1, -13, -2717)" filter="url(#Rectangle_438)">
      <rect id="Rectangle_438-2" data-name="Rectangle 438" width="141" height="162" rx="5" transform="translate(45 45)" fill="#fff"/>
    </g>
    <text id="Simple_navigation_and_easier_finds" data-name="Simple navigation
and easier finds" transform="translate(103 -2553)" font-size="10" font-family="Montserrat-Bold, Montserrat" font-weight="700"><tspan x="-47.445" y="0">Simple navigation</tspan><tspan font-family="Montserrat-Regular, Montserrat" font-weight="400"><tspan x="-40.135" y="16">and easier finds</tspan></tspan></text>
    <g id="directions_icon" data-name="directions icon" transform="translate(70.651 -2645.917)">
      <rect id="Rectangle_204" data-name="Rectangle 204" width="51.785" height="51.035" rx="20" transform="translate(6.563 1.637)" fill="#fff"/>
      <g transform="matrix(1, 0, 0, 1, -83.65, -71.08)" filter="url(#directions-solid)">
        <path id="directions-solid-2" data-name="directions-solid" d="M62.624,29.071l-27.9-27.9a4,4,0,0,0-5.652,0l-27.9,27.9a4,4,0,0,0,0,5.652l27.9,27.9a4,4,0,0,0,5.652,0l27.9-27.9a4,4,0,0,0,0-5.652ZM50.042,30.635,39.55,40.32a1,1,0,0,1-1.673-.733V32.893H25.915v7.974a1,1,0,0,1-1,1H20.931a1,1,0,0,1-1-1V30.9a3.988,3.988,0,0,1,3.987-3.987H37.876V20.218a1,1,0,0,1,1.673-.733L50.042,29.17A1,1,0,0,1,50.042,30.635Z" transform="translate(83.65 71.08)" fill="#4f6cc2"/>
      </g>
    </g>
  </g>
</svg>
